<svg fill="#ffffff" viewBox="0 0 16 16" xmlns="http://www.w3.org/2000/svg"><g id="SVGRepo_bgCarrier" stroke-width="0"></g><g id="SVGRepo_tracerCarrier" stroke-linecap="round" stroke-linejoin="round"></g><g id="SVGRepo_iconCarrier"><path d="m14.91 13.09-3.68-3.21a4.86 4.86 0 0 0 .86-2.77A5.34 5.34 0 0 0 6.59 2a5.35 5.35 0 0 0-5.5 5.15 5.34 5.34 0 0 0 5.5 5.15 5.71 5.71 0 0 0 3.82-1.44L14.08 14zM6.59 11a4.09 4.09 0 0 1-4.25-3.9 4.09 4.09 0 0 1 4.25-3.9 4.09 4.09 0 0 1 4.25 3.9A4.08 4.08 0 0 1 6.59 11z"></path></g></svg>